<svg width="24" height="24" viewBox="0 0 24 24" fill="none" xmlns="http://www.w3.org/2000/svg">
<g id="icons8-excluir 4" clip-path="url(#clip0_1_4591)">
<g id="surface49719419">
<path id="Vector" d="M23.6294 12C23.6294 5.57812 18.4219 0.370605 12 0.370605C5.57812 0.370605 0.370605 5.57812 0.370605 12C0.370605 18.4219 5.57812 23.6294 12 23.6294C18.4219 23.6294 23.6294 18.4219 23.6294 12Z" fill="#D0AF56"/>
<path id="Vector_2" d="M13.3595 12L16.7579 8.05373C17.1285 7.6216 17.0817 6.9756 16.6495 6.6006C16.2189 6.23 15.5714 6.27687 15.2023 6.70754L12.0001 10.4253L8.80384 6.71193C8.43323 6.28127 7.78138 6.23439 7.35071 6.605C6.91858 6.9756 6.87171 7.62599 7.24231 8.05812L10.6408 12L7.24231 15.9463C6.87171 16.3784 6.91858 17.0244 7.35071 17.3994C7.54261 17.5694 7.78138 17.6485 8.02015 17.6485C8.31165 17.6485 8.59729 17.5269 8.79798 17.2925L11.9957 13.5791L15.192 17.2925C15.3942 17.5269 15.6842 17.6485 15.9699 17.6485C16.2101 17.6485 16.4489 17.5694 16.6407 17.3994C17.0714 17.0303 17.1183 16.3784 16.7491 15.9463L13.3595 12Z" fill="white"/>
</g>
</g>
<defs>
<clipPath id="clip0_1_4591">
<rect width="24" height="24" fill="white"/>
</clipPath>
</defs>
</svg>
