<svg width="24" height="25" viewBox="0 0 24 25" fill="none" xmlns="http://www.w3.org/2000/svg">
<g id="iconamoon:search-fill">
<path id="Vector" fill-rule="evenodd" clip-rule="evenodd" d="M11 2.34766C9.56238 2.34781 8.14571 2.69236 6.86859 3.35245C5.59146 4.01254 4.49105 4.96897 3.65947 6.14168C2.82788 7.31438 2.28933 8.66923 2.08889 10.0928C1.88844 11.5164 2.03194 12.9673 2.50738 14.324C2.98281 15.6808 3.77634 16.9039 4.82154 17.8909C5.86673 18.878 7.13318 19.6004 8.51487 19.9975C9.89656 20.3946 11.3533 20.4549 12.7631 20.1735C14.1729 19.892 15.4947 19.2769 16.618 18.3797L20.293 22.0547C20.4816 22.2368 20.7342 22.3376 20.9964 22.3353C21.2586 22.3331 21.5094 22.2279 21.6948 22.0425C21.8802 21.8571 21.9854 21.6063 21.9877 21.3441C21.99 21.0819 21.8892 20.8293 21.707 20.6407L18.032 16.9657C19.09 15.6415 19.7526 14.0455 19.9435 12.3614C20.1344 10.6773 19.8459 8.97352 19.1112 7.44615C18.3764 5.91879 17.2253 4.62993 15.7904 3.72795C14.3554 2.82596 12.6949 2.34751 11 2.34766ZM5 11.3477C5 10.5597 5.1552 9.77951 5.45673 9.05156C5.75825 8.3236 6.20021 7.66217 6.75736 7.10502C7.31451 6.54786 7.97595 6.10591 8.7039 5.80438C9.43186 5.50285 10.2121 5.34766 11 5.34766C11.7879 5.34766 12.5682 5.50285 13.2961 5.80438C14.0241 6.10591 14.6855 6.54786 15.2426 7.10502C15.7998 7.66217 16.2418 8.3236 16.5433 9.05156C16.8448 9.77951 17 10.5597 17 11.3477C17 12.939 16.3679 14.4651 15.2426 15.5903C14.1174 16.7155 12.5913 17.3477 11 17.3477C9.4087 17.3477 7.88258 16.7155 6.75736 15.5903C5.63214 14.4651 5 12.939 5 11.3477Z" fill="#CECECE" fill-opacity="0.34"/>
</g>
</svg>
